<svg xmlns="http://www.w3.org/2000/svg" width="480" height="391" viewBox="0 0 480 391">
<g>
<path d="M 228.59 240.14 C229.28,241.27 230.74,241.24 231.45,240.08 C231.79,239.53 229.57,238.55 227.51,238.05 C230.49,238.34 234.12,238.47 239.39,238.59 C242.21,238.65 244.79,238.63 247.23,238.51 C246.81,238.85 246.89,239.56 247.67,240.33 C247.83,240.49 247.94,240.63 248.08,240.72 C248.71,241.17 249.90,240.82 258.85,238.48 C287.57,230.99 310.53,210.31 317.46,185.71 C318.42,182.29 319.85,177.34 320.63,174.71 C321.42,172.07 321.76,169.42 321.38,168.80 C321.00,168.19 319.22,172.69 317.43,178.80 C317.12,179.84 316.79,180.94 316.43,182.05 C318.48,175.43 320.02,168.78 320.20,165.00 C320.20,164.88 320.21,164.76 320.21,164.65 C320.27,165.77 320.62,165.73 321.53,164.98 C322.34,164.31 323.00,163.01 323.00,162.10 C323.00,160.42 334.57,148.24 335.39,149.06 C336.66,150.34 336.03,172.18 334.52,179.00 C327.85,209.11 305.49,235.66 277.00,247.30 C262.57,253.19 256.26,254.39 239.50,254.44 C221.45,254.48 213.02,252.59 197.36,244.99 C183.33,238.18 174.44,230.96 161.34,215.69 C159.59,213.66 157.75,212.00 157.23,212.00 C156.71,212.00 152.79,215.26 148.51,219.25 C141.46,225.82 138.93,228.42 137.28,227.94 C136.14,227.61 135.43,225.83 133.94,222.88 L 130.82 216.69 L 175.15 172.35 C199.54,147.96 219.72,128.00 220.00,128.00 C220.29,128.00 228.61,136.09 238.51,145.98 C248.40,155.87 257.76,164.49 259.30,165.12 C262.05,166.26 262.45,165.93 280.30,148.29 C290.31,138.39 301.09,127.76 304.25,124.67 C311.61,117.47 311.71,115.55 305.15,106.90 C285.90,81.48 250.40,68.98 220.00,76.91 C195.30,83.35 175.69,99.48 165.16,122.00 C162.97,126.68 160.93,132.75 160.63,135.50 L 160.08 140.50 L 162.89 133.00 C163.90,130.28 164.97,127.69 166.11,125.22 C161.89,134.72 159.05,145.23 159.02,152.58 C159.00,156.35 158.40,157.23 150.96,164.48 C149.86,165.55 148.87,166.49 147.99,167.30 C148.90,166.46 149.91,165.49 151.05,164.37 C158.13,157.43 159.12,156.03 158.80,153.46 L 158.43 150.50 L 156.86 154.00 C155.99,155.93 152.63,159.98 149.39,163.00 L 143.50 168.50 L 143.21 157.50 C142.88,144.87 144.64,134.41 148.99,123.22 C157.63,100.94 175.50,81.70 197.50,70.98 C209.25,65.26 216.31,63.30 229.97,62.00 C263.35,58.82 292.49,70.76 314.14,96.51 C320.38,103.93 322.29,104.99 325.91,103.05 C328.71,101.55 347.00,81.15 347.00,79.53 C347.00,78.73 345.65,76.54 344.01,74.66 L 341.02 71.25 L 344.76 70.73 C346.82,70.44 352.55,70.38 357.50,70.59 C362.45,70.80 366.84,70.98 367.25,70.99 C368.14,71.00 368.28,97.00 367.38,97.00 C367.04,97.00 365.23,95.65 363.35,94.00 C361.47,92.35 359.16,90.98 358.22,90.95 C357.24,90.93 335.79,111.83 308.74,139.16 L 260.98 187.41 L 241.68 168.20 C230.94,157.52 221.58,149.00 220.58,149.00 C218.40,149.00 169.01,197.85 169.01,200.01 C169.00,202.37 175.86,211.99 181.44,217.43 C191.98,227.70 211.00,237.53 222.71,238.73 C225.65,239.04 228.30,239.67 228.59,240.14 ZM 428.86 326.27 C422.74,330.80 411.75,328.67 407.02,322.03 C404.60,318.63 403.34,311.77 404.38,307.64 C405.31,303.91 409.93,298.93 414.26,297.00 C420.32,294.28 426.39,295.82 431.75,301.43 C435.77,305.64 436.00,306.21 436.00,311.79 C436.00,318.23 433.86,322.57 428.86,326.27 ZM 282.68 325.41 C280.39,327.10 278.08,327.57 270.43,327.85 L 261.00 328.19 L 261.00 295.81 L 270.43 296.15 C278.08,296.43 280.39,296.90 282.68,298.59 C292.49,305.87 292.49,318.13 282.68,325.41 ZM 416.33 324.88 C421.58,326.36 428.94,323.85 431.08,319.85 C435.71,311.20 432.53,302.44 423.81,299.82 C414.13,296.92 404.94,305.65 407.39,315.42 C408.32,319.14 412.81,323.89 416.33,324.88 ZM 265.56 322.78 C267.56,325.63 274.97,325.84 279.94,323.17 C283.69,321.16 287.00,315.93 287.00,312.00 C287.00,305.01 280.11,299.00 272.09,299.00 C265.05,299.00 264.00,300.61 264.00,311.43 C264.00,318.07 264.42,321.16 265.56,322.78 ZM 361.00 324.22 C361.00,326.30 360.55,328.00 360.00,328.00 C359.38,328.00 359.00,322.00 359.00,312.00 L 359.00 296.00 L 367.08 296.00 C374.67,296.00 375.33,296.17 378.08,298.92 C381.93,302.77 382.04,307.90 378.38,313.17 L 375.76 316.95 L 378.38 321.96 C381.43,327.78 381.47,328.00 379.54,328.00 C378.74,328.00 376.89,325.97 375.44,323.48 C373.98,321.00 371.84,318.30 370.67,317.48 C365.65,313.97 361.00,317.21 361.00,324.22 ZM 66.00 326.95 C66.00,327.53 65.32,328.00 64.50,328.00 C63.67,328.00 63.00,327.60 63.00,327.12 C63.00,326.64 65.43,319.55 68.39,311.37 C73.60,297.00 73.88,296.49 76.77,296.20 L 79.75 295.89 L 85.39 311.20 C88.49,319.61 91.02,326.84 91.01,327.25 C90.98,329.05 88.22,327.77 87.17,325.48 C84.85,320.39 72.82,319.09 68.45,323.45 C67.10,324.80 66.00,326.38 66.00,326.95 ZM 317.80 322.68 C317.63,325.28 316.95,327.53 316.25,327.76 C315.28,328.07 315.00,324.50 315.00,312.08 L 315.00 296.00 L 321.98 296.00 C328.28,296.00 329.29,296.29 332.21,298.90 C334.86,301.26 335.45,302.54 335.45,305.84 C335.45,311.35 332.24,314.70 326.11,315.59 C319.07,316.61 318.15,317.39 317.80,322.68 ZM 213.63 318.66 C213.52,326.20 213.25,327.52 211.75,327.81 C210.14,328.12 210.00,326.84 210.00,312.07 C210.00,296.07 210.01,296.00 212.25,296.00 C213.99,296.00 215.71,297.94 219.83,304.50 C225.11,312.92 227.17,314.43 229.80,311.80 C230.51,311.09 231.00,307.64 231.00,303.30 C231.00,297.58 231.31,296.00 232.45,296.00 C234.33,296.00 235.02,299.99 235.29,312.50 C235.52,323.39 234.72,328.00 232.60,328.00 C231.85,328.00 228.49,323.71 225.14,318.48 C216.17,304.45 213.83,304.49 213.63,318.66 ZM 133.30 327.65 C123.54,331.73 112.44,325.09 111.24,314.47 C110.61,308.81 111.41,305.86 114.62,302.04 C119.77,295.92 127.48,294.13 134.04,297.52 C139.18,300.18 137.62,302.58 132.22,300.32 C125.38,297.46 117.17,300.92 114.97,307.58 C111.63,317.71 120.51,327.63 130.47,324.88 C138.36,322.70 139.32,316.00 131.73,316.00 C129.66,316.00 128.94,315.57 129.18,314.45 C129.35,313.59 129.84,312.92 130.25,312.95 C130.66,312.98 133.70,313.00 137.00,313.00 C142.98,313.00 143.00,313.01 143.00,315.97 C143.00,319.60 137.92,325.72 133.30,327.65 ZM 185.00 326.55 C185.00,327.71 183.20,328.00 176.00,328.00 L 167.00 328.00 L 167.00 296.00 L 176.00 296.00 C183.33,296.00 185.00,296.28 185.00,297.50 C185.00,298.67 183.67,299.00 179.06,299.00 C174.05,299.00 172.87,299.35 171.56,301.22 C169.50,304.16 169.59,305.59 172.00,308.00 C173.41,309.41 175.33,310.00 178.50,310.00 C181.76,310.00 183.00,310.40 183.00,311.45 C183.00,312.49 181.53,312.98 177.78,313.20 C173.28,313.46 172.36,313.88 171.03,316.25 C169.66,318.72 169.66,319.28 171.03,321.75 C172.42,324.23 173.18,324.53 178.78,324.80 C183.42,325.02 185.00,325.47 185.00,326.55 ZM 363.46 311.60 C364.52,312.37 366.85,313.00 368.64,313.00 C376.03,313.00 380.24,308.30 377.54,303.07 C375.83,299.78 374.23,299.00 369.11,299.00 C363.66,299.00 361.55,300.96 361.55,306.00 C361.55,308.98 362.10,310.60 363.46,311.60 ZM 327.37 311.05 C331.18,309.60 332.51,306.42 330.55,303.43 C329.25,301.46 328.12,301.00 324.48,301.00 L 320.00 301.00 L 320.00 305.45 C320.00,308.63 320.50,310.19 321.75,310.92 C323.95,312.20 324.31,312.21 327.37,311.05 ZM 72.65 315.91 C74.28,318.23 78.87,318.73 80.80,316.80 C83.51,314.09 80.66,305.00 77.10,305.00 C73.21,305.00 70.19,312.40 72.65,315.91 ZM 174.63 110.45 C177.94,105.85 181.71,101.63 186.07,97.59 C188.72,95.14 191.54,92.90 194.52,90.88 C187.83,95.78 179.86,103.61 174.63,110.45 ZM 258.15 237.08 C253.76,238.28 250.18,238.87 248.81,238.44 C248.79,238.43 248.76,238.42 248.74,238.42 C252.07,238.19 255.14,237.76 258.15,237.08 ZM 206.67 231.71 C205.43,231.17 204.31,230.66 203.40,230.20 C199.45,228.21 195.42,225.63 191.56,222.70 C196.24,226.17 201.33,229.21 206.67,231.71 ZM 220.77 79.40 C236.59,75.65 253.62,76.58 268.93,82.71 C253.89,76.69 236.77,75.67 220.77,79.40 ZM 336.50 144.92 C335.08,145.68 332.73,147.73 328.74,151.56 C323.59,156.50 321.48,158.83 320.69,160.85 C321.38,158.62 323.22,156.85 328.73,151.56 C332.73,147.73 335.08,145.68 336.50,144.92 ZM 219.66 236.58 C221.50,237.10 223.19,237.48 225.08,237.75 C224.96,237.76 224.86,237.78 224.77,237.80 C224.28,237.93 222.29,237.42 219.66,236.58 ZM 141.84 171.24 C141.83,171.23 141.83,171.23 141.83,171.23 C141.63,171.03 141.46,170.44 141.34,169.46 C141.46,170.43 141.63,171.02 141.84,171.24 ZM 311.15 196.05 C311.09,196.16 311.04,196.27 310.99,196.38 C310.98,196.40 310.97,196.42 310.96,196.43 C311.02,196.31 311.08,196.18 311.15,196.05 Z" fill="rgba(12,20,76,1)"/>
<path d="M 227.82 257.48 C227.47,257.14 223.91,256.17 219.90,255.34 C200.87,251.41 185.12,243.00 171.46,229.50 C166.45,224.55 161.19,218.93 159.76,217.00 L 157.15 213.50 L 148.31 222.25 C143.44,227.06 138.69,231.00 137.75,231.00 C136.74,231.00 134.80,228.85 133.01,225.75 C131.56,223.25 130.24,221.71 129.90,219.98 C128.90,214.88 136.38,208.13 174.11,170.39 C199.07,145.43 219.90,125.00 220.39,125.00 C220.89,125.00 230.24,133.87 241.17,144.72 L 261.05 164.44 L 285.21 140.29 L 309.36 116.13 L 306.43 111.82 C298.64,100.37 283.29,88.46 268.93,82.71 C241.13,71.59 207.67,77.59 186.07,97.59 C175.51,107.37 168.42,118.21 162.89,133.00 L 160.08 140.50 L 160.63 135.50 C160.93,132.75 162.97,126.68 165.16,122.00 C175.69,99.48 195.30,83.35 220.00,76.91 C250.40,68.98 285.90,81.48 305.15,106.90 C311.71,115.55 311.61,117.47 304.25,124.67 C301.09,127.76 290.31,138.39 280.30,148.29 C262.45,165.93 262.05,166.26 259.30,165.12 C257.76,164.49 248.40,155.87 238.51,145.98 C228.61,136.09 220.29,128.00 220.00,128.00 C219.72,128.00 199.54,147.96 175.15,172.35 L 130.82 216.69 L 133.94 222.88 C135.43,225.83 136.14,227.61 137.28,227.94 C138.93,228.42 141.46,225.82 148.51,219.25 C152.79,215.26 156.71,212.00 157.23,212.00 C157.75,212.00 159.59,213.66 161.34,215.69 C174.44,230.96 183.33,238.18 197.36,244.99 C213.02,252.59 221.45,254.48 239.50,254.44 C256.26,254.39 262.57,253.19 277.00,247.30 C305.49,235.66 327.85,209.11 334.52,179.00 C336.03,172.18 336.66,150.34 335.39,149.06 C334.57,148.24 323.00,160.42 323.00,162.10 C323.00,163.01 322.34,164.31 321.53,164.98 C320.27,166.02 320.08,165.70 320.26,162.85 C320.43,160.08 321.88,158.14 328.74,151.56 C332.61,147.85 334.93,145.81 336.36,144.99 C336.46,145.53 336.75,146.24 337.18,146.94 C338.29,148.72 338.56,148.80 338.84,147.43 C338.87,147.33 338.88,147.22 338.89,147.12 C339.09,148.59 339.21,150.72 339.27,153.55 C339.19,153.33 339.10,153.15 339.00,153.00 C338.34,151.97 338.06,154.18 338.13,160.00 C338.21,166.03 338.46,167.63 339.00,165.50 C339.02,165.41 339.05,165.32 339.07,165.23 C338.29,177.75 335.43,188.26 329.57,200.63 C323.91,212.56 318.19,220.62 309.36,229.07 C295.15,242.67 279.28,250.99 258.50,255.72 C256.83,256.10 254.33,256.46 251.45,256.78 C250.86,256.27 246.90,256.00 240.06,256.00 C232.69,256.00 228.00,256.39 228.00,257.00 C228.00,257.43 230.27,257.76 234.09,257.91 C230.65,257.96 228.18,257.84 227.82,257.48 ZM 228.59 240.14 C228.30,239.67 225.65,239.04 222.71,238.73 C211.00,237.53 191.98,227.70 181.44,217.43 C175.86,211.99 169.00,202.37 169.01,200.01 C169.01,197.85 218.40,149.00 220.58,149.00 C221.58,149.00 230.94,157.52 241.68,168.20 L 260.98 187.41 L 308.74 139.16 C335.79,111.83 357.24,90.93 358.22,90.95 C359.16,90.98 361.47,92.35 363.35,94.00 C365.23,95.65 367.04,97.00 367.38,97.00 C368.28,97.00 368.14,71.00 367.25,70.99 C366.84,70.98 362.45,70.80 357.50,70.59 C352.55,70.38 346.82,70.44 344.76,70.73 L 341.02 71.25 L 344.01 74.66 C345.65,76.54 347.00,78.73 347.00,79.53 C347.00,81.15 328.71,101.55 325.91,103.05 C322.29,104.99 320.38,103.93 314.14,96.51 C292.49,70.76 263.35,58.82 229.97,62.00 C216.31,63.30 209.25,65.26 197.50,70.98 C175.50,81.70 157.63,100.94 148.99,123.22 C144.64,134.41 142.88,144.87 143.21,157.50 L 143.50 168.50 L 149.39 163.00 C152.63,159.98 155.99,155.93 156.86,154.00 L 158.43 150.50 L 158.80 153.46 C159.12,156.03 158.13,157.43 151.05,164.37 C145.20,170.11 142.63,172.03 141.84,171.24 C141.11,170.51 140.91,165.17 141.25,154.83 C141.66,142.04 142.19,138.02 144.42,130.56 C156.02,91.88 187.31,65.53 228.35,59.87 C230.98,59.51 233.21,59.21 235.12,58.97 C235.04,59.35 237.22,59.66 240.47,59.69 C243.70,59.72 246.19,59.42 246.43,59.01 C247.15,59.56 248.97,60.00 250.64,60.00 C257.53,60.00 276.01,65.44 285.55,70.27 C296.56,75.85 312.36,89.45 320.27,100.15 L 322.42 103.05 L 333.71 91.79 C339.92,85.60 345.00,80.05 345.00,79.46 C345.00,78.87 343.42,76.87 341.50,75.00 C335.55,69.23 336.06,69.00 354.50,69.00 L 371.00 69.00 L 371.00 85.50 C371.00,92.09 370.98,96.40 370.67,98.92 C370.34,98.56 369.74,98.52 368.75,98.70 C367.15,99.01 365.51,98.10 363.05,95.56 C359.57,91.97 358.00,91.17 358.00,93.00 C358.00,93.55 358.58,94.00 359.30,94.00 C360.01,94.00 362.35,95.80 364.50,98.00 C366.64,100.19 368.28,101.47 369.38,101.81 C368.42,101.95 366.91,100.46 364.50,98.00 C362.35,95.80 359.89,94.00 359.03,94.00 C358.17,94.00 335.76,115.73 309.22,142.29 L 260.97 190.58 L 241.27 170.79 C230.43,159.91 221.10,151.00 220.53,151.00 C219.95,151.00 208.50,162.00 195.07,175.43 L 170.65 199.87 L 173.18 203.68 C179.95,213.87 192.01,224.45 203.40,230.20 C209.23,233.14 223.34,238.16 224.77,237.80 C226.48,237.37 231.97,239.24 231.45,240.08 C230.74,241.24 229.28,241.27 228.59,240.14 ZM 415.50 330.94 C411.32,329.71 405.57,324.72 403.63,320.63 C401.63,316.41 401.51,307.84 403.41,304.20 C406.93,297.46 415.31,292.54 421.50,293.57 C430.36,295.05 436.59,300.38 439.01,308.57 C439.19,309.18 439.33,309.71 439.44,310.20 C439.31,310.07 439.16,310.00 439.00,310.00 C438.45,310.00 438.00,311.15 438.00,312.56 C438.00,314.01 438.43,314.85 439.00,314.50 C439.13,314.42 439.26,314.29 439.38,314.12 C439.11,315.10 438.66,316.25 437.99,317.81 C435.34,323.96 429.61,329.46 424.32,330.93 C419.96,332.14 419.59,332.14 415.50,330.94 ZM 277.28 330.11 C276.70,329.77 273.12,329.50 268.66,329.50 L 259.50 329.50 L 258.95 294.00 L 267.23 294.04 C271.80,294.07 277.29,294.73 279.50,295.53 C282.81,296.72 283.69,297.07 283.92,296.82 C283.98,296.75 284.00,296.65 284.00,296.52 C284.96,297.28 285.90,298.19 286.88,299.27 C294.22,307.35 294.68,316.02 288.18,323.23 C284.77,327.02 281.74,329.09 277.28,330.11 ZM 428.86 326.27 C433.86,322.57 436.00,318.23 436.00,311.79 C436.00,306.21 435.77,305.64 431.75,301.43 C426.39,295.82 420.32,294.28 414.26,297.00 C409.93,298.93 405.31,303.91 404.38,307.64 C403.34,311.77 404.60,318.63 407.02,322.03 C411.75,328.67 422.74,330.80 428.86,326.27 ZM 282.68 325.41 C292.49,318.13 292.49,305.87 282.68,298.59 C280.39,296.90 278.08,296.43 270.43,296.15 L 261.00 295.81 L 261.00 328.19 L 270.43 327.85 C278.08,327.57 280.39,327.10 282.68,325.41 ZM 357.17 329.77 C356.37,328.97 356.00,323.20 356.00,311.30 L 356.00 294.00 L 365.25 294.01 C375.71,294.03 378.41,295.00 381.72,299.91 C384.67,304.28 384.60,307.83 381.50,312.40 C378.33,317.08 378.36,317.83 382.02,324.03 C382.88,325.49 383.59,326.94 384.03,328.05 C383.90,328.02 383.75,328.00 383.58,328.00 C382.71,328.00 382.00,328.71 382.00,329.58 C382.00,330.36 382.42,330.74 382.94,330.75 C382.24,330.91 381.38,331.00 380.51,331.00 C377.42,331.00 376.86,330.50 373.84,325.00 C372.02,321.70 369.97,318.93 369.27,318.85 C368.57,318.77 367.44,318.65 366.75,318.60 C366.09,318.55 365.56,319.85 365.22,322.39 C365.31,319.99 365.19,318.00 364.75,318.00 C364.34,318.00 363.95,318.79 363.89,319.75 C363.65,323.36 363.23,327.53 363.00,328.50 C362.87,329.03 362.82,329.87 362.88,330.40 C362.49,330.49 362.01,330.55 361.42,330.61 C359.73,330.80 357.82,330.42 357.17,329.77 ZM 208.14 329.67 C207.30,328.66 207.03,323.30 207.23,311.37 L 207.50 294.50 L 211.63 294.20 L 215.76 293.90 L 221.58 302.95 C224.92,308.15 227.77,311.63 228.28,311.12 C228.76,310.64 229.01,306.40 228.83,301.70 L 228.50 293.15 L 231.50 293.66 C233.15,293.94 235.06,294.35 235.75,294.56 C237.71,295.15 237.52,328.32 235.55,329.96 C232.75,332.28 230.45,330.42 223.97,320.61 C220.38,315.16 217.02,310.89 216.51,311.11 C215.99,311.32 215.56,315.77 215.54,321.00 L 215.50 330.50 L 212.41 330.80 C210.63,330.98 208.83,330.50 208.14,329.67 ZM 122.18 330.89 C120.35,330.35 116.94,327.99 114.59,325.65 C106.98,318.04 106.43,308.13 113.19,300.44 C119.70,293.02 127.30,291.60 136.25,296.14 C140.27,298.18 141.11,300.83 138.43,303.05 C137.20,304.08 136.19,304.11 133.61,303.18 C128.11,301.19 122.63,301.69 119.65,304.45 C117.45,306.49 117.00,307.77 117.00,312.03 C117.00,316.36 117.45,317.61 119.92,320.08 C122.27,322.42 123.72,323.00 127.23,323.00 C131.96,323.00 135.75,321.02 134.59,319.15 C134.20,318.51 132.85,318.25 131.58,318.57 C128.58,319.32 126.00,316.72 126.00,312.94 L 126.00 310.02 L 135.25 310.66 C140.34,311.02 144.83,311.80 145.23,312.40 C147.68,316.05 143.37,324.28 136.99,328.16 C131.72,331.36 126.80,332.27 122.18,330.89 ZM 60.39 329.57 C59.99,328.52 71.13,295.36 72.63,293.15 C72.76,292.96 74.71,293.11 76.95,293.49 C80.00,294.01 81.39,294.86 82.39,296.84 C84.09,300.21 94.00,327.48 94.00,328.80 C94.00,329.96 91.61,331.00 88.93,331.00 C87.70,331.00 86.51,329.76 85.56,327.50 L 84.10 324.00 L 77.15 324.00 C70.26,324.00 70.18,324.03 68.13,327.50 C66.63,330.05 65.37,331.00 63.50,331.00 C62.09,331.00 60.69,330.36 60.39,329.57 ZM 314.25 330.34 C313.32,329.96 313.00,325.31 313.00,311.92 L 313.00 294.00 L 320.53 294.00 C329.56,294.00 334.30,295.75 336.43,299.87 C339.07,304.96 338.47,309.52 334.61,313.73 C331.72,316.88 330.43,317.50 325.86,317.96 L 320.50 318.50 L 320.19 323.98 C319.83,330.32 318.29,331.97 314.25,330.34 ZM 166.25 330.34 C165.32,329.96 165.00,325.31 165.00,311.92 L 165.00 294.00 L 175.94 294.00 C182.55,294.00 187.14,294.42 187.54,295.06 C187.89,295.64 187.92,297.19 187.59,298.51 C187.04,300.70 186.41,300.93 180.24,301.20 L 173.50 301.50 L 173.50 304.50 C173.50,307.43 173.62,307.51 179.00,307.81 C185.39,308.16 186.49,308.92 185.62,312.38 C185.05,314.66 184.44,314.93 179.24,315.20 L 173.50 315.50 L 172.88 323.00 L 179.83 323.00 C185.25,323.00 186.92,323.35 187.39,324.58 C188.30,326.95 188.15,327.71 186.43,329.43 C185.23,330.63 182.81,330.98 176.18,330.92 C171.41,330.88 166.94,330.62 166.25,330.34 ZM 416.33 324.88 C412.81,323.89 408.32,319.14 407.39,315.42 C404.94,305.65 414.13,296.92 423.81,299.82 C432.53,302.44 435.71,311.20 431.08,319.85 C428.94,323.85 421.58,326.36 416.33,324.88 ZM 265.56 322.78 C264.42,321.16 264.00,318.07 264.00,311.43 C264.00,300.61 265.05,299.00 272.09,299.00 C280.11,299.00 287.00,305.01 287.00,312.00 C287.00,315.93 283.69,321.16 279.94,323.17 C274.97,325.84 267.56,325.63 265.56,322.78 ZM 361.00 324.22 C361.00,317.21 365.65,313.97 370.67,317.48 C371.84,318.30 373.98,321.00 375.44,323.48 C376.89,325.97 378.74,328.00 379.54,328.00 C381.47,328.00 381.43,327.78 378.38,321.96 L 375.76 316.95 L 378.38 313.17 C382.04,307.90 381.93,302.77 378.08,298.92 C375.33,296.17 374.67,296.00 367.08,296.00 L 359.00 296.00 L 359.00 312.00 C359.00,322.00 359.38,328.00 360.00,328.00 C360.55,328.00 361.00,326.30 361.00,324.22 ZM 66.00 326.95 C66.00,326.38 67.10,324.80 68.45,323.45 C72.82,319.09 84.85,320.39 87.17,325.48 C88.22,327.77 90.98,329.05 91.01,327.25 C91.02,326.84 88.49,319.61 85.39,311.20 L 79.75 295.89 L 76.77 296.20 C73.88,296.49 73.60,297.00 68.39,311.37 C65.43,319.55 63.00,326.64 63.00,327.12 C63.00,327.60 63.67,328.00 64.50,328.00 C65.32,328.00 66.00,327.53 66.00,326.95 ZM 317.80 322.68 C318.15,317.39 319.07,316.61 326.11,315.59 C332.24,314.70 335.45,311.35 335.45,305.84 C335.45,302.54 334.86,301.26 332.21,298.90 C329.29,296.29 328.28,296.00 321.98,296.00 L 315.00 296.00 L 315.00 312.08 C315.00,324.50 315.28,328.07 316.25,327.76 C316.95,327.53 317.63,325.28 317.80,322.68 ZM 213.63 318.66 C213.83,304.49 216.17,304.45 225.14,318.48 C228.49,323.71 231.85,328.00 232.60,328.00 C234.72,328.00 235.52,323.39 235.29,312.50 C235.02,299.99 234.33,296.00 232.45,296.00 C231.31,296.00 231.00,297.58 231.00,303.30 C231.00,307.64 230.51,311.09 229.80,311.80 C227.17,314.43 225.11,312.92 219.83,304.50 C215.71,297.94 213.99,296.00 212.25,296.00 C210.01,296.00 210.00,296.07 210.00,312.07 C210.00,326.84 210.14,328.12 211.75,327.81 C213.25,327.52 213.52,326.20 213.63,318.66 ZM 427.90 319.47 C434.59,311.85 430.30,302.00 420.30,302.00 C414.34,302.00 411.39,303.92 410.09,308.65 C407.89,316.62 412.51,323.00 420.47,323.00 C424.17,323.00 425.24,322.49 427.90,319.47 ZM 278.81 321.65 C281.80,319.99 284.99,315.13 284.99,312.20 C285.00,308.79 282.52,304.62 279.55,303.03 C278.10,302.25 274.80,301.59 272.21,301.56 L 267.50 301.50 L 267.22 312.25 L 266.93 323.00 L 271.72 322.96 C274.35,322.95 277.54,322.35 278.81,321.65 ZM 133.30 327.65 C137.92,325.72 143.00,319.60 143.00,315.97 C143.00,313.01 142.98,313.00 137.00,313.00 C133.70,313.00 130.66,312.98 130.25,312.95 C129.84,312.92 129.35,313.59 129.18,314.45 C128.94,315.57 129.66,316.00 131.73,316.00 C139.32,316.00 138.36,322.70 130.47,324.88 C120.51,327.63 111.63,317.71 114.97,307.58 C117.17,300.92 125.38,297.46 132.22,300.32 C137.62,302.58 139.18,300.18 134.04,297.52 C127.48,294.13 119.77,295.92 114.62,302.04 C111.41,305.86 110.61,308.81 111.24,314.47 C112.44,325.09 123.54,331.73 133.30,327.65 ZM 185.00 326.55 C185.00,325.47 183.42,325.02 178.78,324.80 C173.18,324.53 172.42,324.23 171.03,321.75 C169.66,319.28 169.66,318.72 171.03,316.25 C172.36,313.88 173.28,313.46 177.78,313.20 C181.53,312.98 183.00,312.49 183.00,311.45 C183.00,310.40 181.76,310.00 178.50,310.00 C175.33,310.00 173.41,309.41 172.00,308.00 C169.59,305.59 169.50,304.16 171.56,301.22 C172.87,299.35 174.05,299.00 179.06,299.00 C183.67,299.00 185.00,298.67 185.00,297.50 C185.00,296.28 183.33,296.00 176.00,296.00 L 167.00 296.00 L 167.00 328.00 L 176.00 328.00 C183.20,328.00 185.00,327.71 185.00,326.55 ZM 247.67 240.33 C246.35,239.02 247.04,237.88 248.81,238.44 C251.88,239.41 266.03,235.25 275.50,230.59 C290.78,223.07 304.23,210.11 310.99,196.38 C312.74,192.82 315.64,184.91 317.43,178.80 C319.22,172.69 321.00,168.19 321.38,168.80 C321.76,169.42 321.42,172.07 320.63,174.71 C319.85,177.34 318.42,182.29 317.46,185.71 C310.53,210.31 287.57,230.99 258.85,238.48 C249.90,240.82 248.71,241.17 248.08,240.72 C247.94,240.63 247.83,240.49 247.67,240.33 ZM 363.46 311.60 C362.10,310.60 361.55,308.98 361.55,306.00 C361.55,300.96 363.66,299.00 369.11,299.00 C374.23,299.00 375.83,299.78 377.54,303.07 C380.24,308.30 376.03,313.00 368.64,313.00 C366.85,313.00 364.52,312.37 363.46,311.60 ZM 72.65 315.91 C70.19,312.40 73.21,305.00 77.10,305.00 C80.66,305.00 83.51,314.09 80.80,316.80 C78.87,318.73 74.28,318.23 72.65,315.91 ZM 375.00 309.00 C377.37,306.63 377.44,305.99 375.63,303.51 C374.64,302.15 372.94,301.62 369.38,301.57 C364.56,301.50 364.50,301.54 364.18,304.85 C363.69,310.00 364.47,311.00 368.97,311.00 C371.67,311.00 373.66,310.34 375.00,309.00 ZM 79.34 312.14 C79.02,305.30 75.44,305.50 74.32,312.42 C73.73,316.07 73.78,316.15 76.61,315.83 C79.20,315.53 79.48,315.15 79.34,312.14 ZM 369.00 70.50 C369.68,71.32 370.41,72.00 370.62,72.00 C370.83,72.00 371.00,71.32 371.00,70.50 C371.00,69.68 370.27,69.00 369.38,69.00 C368.05,69.00 367.98,69.27 369.00,70.50 ZM 278.42 293.86 C275.40,293.33 271.45,293.00 267.29,293.00 L 267.46 293.00 C272.32,293.00 275.73,293.21 278.42,293.86 ZM 257.54 330.06 C258.06,330.59 262.59,330.92 267.19,330.98 C262.30,330.98 258.04,330.58 257.54,330.06 ZM 384.51 329.75 C384.52,329.89 384.50,330.00 384.46,330.07 C384.36,330.23 384.11,330.39 383.76,330.52 C384.04,330.35 384.30,330.09 384.51,329.75 ZM 338.05 144.68 C338.11,144.71 338.15,144.75 338.20,144.80 C338.33,144.93 338.45,145.16 338.55,145.49 C338.41,145.19 338.24,144.91 338.05,144.68 ZM 245.42 58.40 C245.18,58.35 244.91,58.30 244.61,58.25 C244.93,58.29 245.19,58.34 245.42,58.40 Z" fill="rgba(15,23,78,1)"/>
<path d="M 257.51 330.02 C256.80,328.87 256.97,298.53 257.71,295.25 C258.19,293.12 258.70,293.00 267.24,293.00 C276.09,293.00 284.00,294.49 284.00,296.16 C284.00,296.48 284.02,296.70 283.92,296.82 C283.69,297.07 282.81,296.72 279.50,295.53 C277.29,294.73 271.80,294.07 267.23,294.04 L 258.95 294.00 L 259.50 329.50 L 268.66 329.50 C273.69,329.50 277.60,329.84 277.35,330.25 C276.65,331.37 258.22,331.16 257.51,330.02 ZM 228.00 257.00 C228.00,256.39 232.69,256.00 240.06,256.00 C247.84,256.00 251.90,256.35 251.50,257.00 C251.15,257.57 245.99,258.00 239.44,258.00 C232.48,258.00 228.00,257.61 228.00,257.00 ZM 364.50 98.00 C362.35,95.80 360.01,94.00 359.30,94.00 C358.58,94.00 358.00,93.55 358.00,93.00 C358.00,91.17 359.57,91.97 363.05,95.56 C365.51,98.10 367.15,99.01 368.75,98.70 C370.43,98.39 371.00,98.75 371.00,100.14 C371.00,103.08 368.73,102.33 364.50,98.00 ZM 338.13 160.00 C338.06,154.18 338.34,151.97 339.00,153.00 C340.12,154.73 340.12,161.12 339.00,165.50 C338.46,167.63 338.21,166.03 338.13,160.00 ZM 235.24 58.83 C236.95,57.75 245.75,57.78 246.42,58.87 C246.72,59.36 244.04,59.72 240.47,59.69 C236.84,59.65 234.54,59.28 235.24,58.83 ZM 438.00 312.56 C438.00,311.15 438.45,310.00 439.00,310.00 C439.55,310.00 440.00,310.87 440.00,311.94 C440.00,313.01 439.55,314.16 439.00,314.50 C438.43,314.85 438.00,314.01 438.00,312.56 ZM 337.18 146.94 C336.46,145.76 336.13,144.54 336.45,144.22 C337.41,143.25 339.21,145.66 338.84,147.43 C338.56,148.80 338.29,148.72 337.18,146.94 ZM 382.00 329.58 C382.00,328.71 382.71,328.00 383.58,328.00 C384.45,328.00 384.99,328.53 384.77,329.19 C384.15,331.04 382.00,331.35 382.00,329.58 ZM 369.00 70.50 C367.98,69.27 368.05,69.00 369.38,69.00 C370.27,69.00 371.00,69.68 371.00,70.50 C371.00,71.32 370.83,72.00 370.62,72.00 C370.41,72.00 369.68,71.32 369.00,70.50 Z" fill="rgba(21,28,82,1)"/>
<path d="M 362.88 330.45 C362.82,329.93 362.87,329.05 363.00,328.50 C363.23,327.53 363.65,323.36 363.89,319.75 C363.95,318.79 364.34,318.00 364.75,318.00 C365.79,318.00 365.03,329.28 363.91,330.45 C363.34,331.05 362.96,331.05 362.88,330.45 Z" fill="rgba(26,33,86,1)"/>
</g>
</svg>